<svg width="101" height="35" viewBox="0 0 101 35" fill="none" xmlns="http://www.w3.org/2000/svg">
    <path
        d="M13.906 22.5H12.1873V9.375C12.1873 9.20924 12.1214 9.05027 12.0042 8.93306C11.887 8.81585 11.728 8.75 11.5623 8.75H10.9373C10.7715 8.75 10.6125 8.81585 10.4953 8.93306C10.3781 9.05027 10.3123 9.20924 10.3123 9.375V22.5H8.59351C8.50192 22.5 8.41232 22.5267 8.33578 22.5771C8.25924 22.6274 8.19912 22.699 8.16284 22.7831C8.12657 22.8672 8.11573 22.9601 8.13166 23.0503C8.14759 23.1405 8.1896 23.224 8.25249 23.2906L10.9087 26.1031C10.9526 26.1495 11.0054 26.1864 11.0639 26.2116C11.1225 26.2368 11.1856 26.2498 11.2494 26.2498C11.3131 26.2498 11.3762 26.2368 11.4348 26.2116C11.4934 26.1864 11.5462 26.1495 11.59 26.1031L14.2462 23.2906C14.3091 23.2241 14.3511 23.1406 14.367 23.0505C14.383 22.9604 14.3722 22.8675 14.336 22.7835C14.2999 22.6994 14.2399 22.6277 14.1634 22.5774C14.087 22.527 13.9975 22.5001 13.906 22.5ZM21.7466 11.7094L19.0904 8.89687C19.0466 8.85053 18.9938 8.81362 18.9352 8.78839C18.8766 8.76316 18.8135 8.75015 18.7498 8.75015C18.686 8.75015 18.6229 8.76316 18.5643 8.78839C18.5057 8.81362 18.4529 8.85053 18.4091 8.89687L15.7529 11.7094C15.69 11.7759 15.648 11.8595 15.6321 11.9496C15.6161 12.0398 15.6269 12.1326 15.6632 12.2167C15.6994 12.3008 15.7594 12.3724 15.8359 12.4228C15.9124 12.4731 16.0019 12.5 16.0935 12.5H17.8123V25.625C17.8123 25.7908 17.8781 25.9497 17.9953 26.0669C18.1125 26.1842 18.2715 26.25 18.4373 26.25H19.0623C19.228 26.25 19.387 26.1842 19.5042 26.0669C19.6214 25.9497 19.6873 25.7908 19.6873 25.625V12.5H21.406C21.4976 12.5 21.5871 12.4731 21.6636 12.4228C21.7401 12.3724 21.8001 12.3008 21.8364 12.2167C21.8726 12.1326 21.8834 12.0398 21.8675 11.9496C21.8515 11.8595 21.8095 11.7759 21.7466 11.7094Z"
        fill="black" />
    <path
        d="M35.08 16.9C35.08 17.764 35.272 18.5267 35.656 19.188C36.0507 19.8493 36.5627 20.3667 37.192 20.74C37.8213 21.1133 38.504 21.3 39.24 21.3C39.7733 21.3 40.2587 21.2307 40.696 21.092C41.144 20.9533 41.5493 20.7613 41.912 20.516C42.2747 20.26 42.584 19.9667 42.84 19.636V21.428C42.3707 21.844 41.8587 22.1533 41.304 22.356C40.7493 22.5587 40.0613 22.66 39.24 22.66C38.4613 22.66 37.7307 22.5213 37.048 22.244C36.376 21.956 35.784 21.556 35.272 21.044C34.76 20.5213 34.36 19.908 34.072 19.204C33.784 18.5 33.64 17.732 33.64 16.9C33.64 16.068 33.784 15.3 34.072 14.596C34.36 13.892 34.76 13.284 35.272 12.772C35.784 12.2493 36.376 11.8493 37.048 11.572C37.7307 11.284 38.4613 11.14 39.24 11.14C40.0613 11.14 40.7493 11.2413 41.304 11.444C41.8587 11.6467 42.3707 11.956 42.84 12.372V14.164C42.584 13.8333 42.2747 13.5453 41.912 13.3C41.5493 13.044 41.144 12.8467 40.696 12.708C40.2587 12.5693 39.7733 12.5 39.24 12.5C38.504 12.5 37.8213 12.6867 37.192 13.06C36.5627 13.4333 36.0507 13.9507 35.656 14.612C35.272 15.2627 35.08 16.0253 35.08 16.9ZM44.5131 18.82C44.5131 18.0733 44.6785 17.412 45.0091 16.836C45.3505 16.26 45.8091 15.8067 46.3851 15.476C46.9611 15.1453 47.6065 14.98 48.3211 14.98C49.0465 14.98 49.6918 15.1453 50.2571 15.476C50.8331 15.8067 51.2865 16.26 51.6171 16.836C51.9585 17.412 52.1291 18.0733 52.1291 18.82C52.1291 19.556 51.9585 20.2173 51.6171 20.804C51.2865 21.38 50.8331 21.8333 50.2571 22.164C49.6918 22.4947 49.0465 22.66 48.3211 22.66C47.6065 22.66 46.9611 22.4947 46.3851 22.164C45.8091 21.8333 45.3505 21.38 45.0091 20.804C44.6785 20.2173 44.5131 19.556 44.5131 18.82ZM45.8091 18.82C45.8091 19.332 45.9158 19.7853 46.1291 20.18C46.3531 20.5747 46.6518 20.8893 47.0251 21.124C47.4091 21.348 47.8411 21.46 48.3211 21.46C48.8011 21.46 49.2278 21.348 49.6011 21.124C49.9851 20.8893 50.2838 20.5747 50.4971 20.18C50.7211 19.7853 50.8331 19.332 50.8331 18.82C50.8331 18.308 50.7211 17.8547 50.4971 17.46C50.2838 17.0547 49.9851 16.74 49.6011 16.516C49.2278 16.292 48.8011 16.18 48.3211 16.18C47.8411 16.18 47.4091 16.292 47.0251 16.516C46.6518 16.74 46.3531 17.0547 46.1291 17.46C45.9158 17.8547 45.8091 18.308 45.8091 18.82ZM63.9675 17.86V22.5H62.6875V18.02C62.6875 17.3907 62.5702 16.9267 62.3355 16.628C62.1115 16.3293 61.7595 16.18 61.2795 16.18C60.9275 16.18 60.6235 16.2547 60.3675 16.404C60.1115 16.5427 59.9142 16.7507 59.7755 17.028C59.6368 17.3053 59.5675 17.636 59.5675 18.02V22.5H58.2875V18.02C58.2875 17.3907 58.1702 16.9267 57.9355 16.628C57.7115 16.3293 57.3595 16.18 56.8795 16.18C56.5275 16.18 56.2235 16.2547 55.9675 16.404C55.7115 16.5427 55.5142 16.7507 55.3755 17.028C55.2368 17.3053 55.1675 17.636 55.1675 18.02V22.5H53.8875V15.14H55.1675V16.212C55.3915 15.796 55.6688 15.4867 55.9995 15.284C56.3408 15.0813 56.7408 14.98 57.1995 14.98C57.7115 14.98 58.1488 15.1027 58.5115 15.348C58.8848 15.5827 59.1568 15.9187 59.3275 16.356C59.5835 15.8973 59.9035 15.556 60.2875 15.332C60.6715 15.0973 61.1088 14.98 61.5995 14.98C62.1008 14.98 62.5275 15.092 62.8795 15.316C63.2315 15.54 63.4982 15.8707 63.6795 16.308C63.8715 16.7347 63.9675 17.252 63.9675 17.86ZM67.5719 26.02H66.2919V15.14H67.5719V26.02ZM73.7319 18.82C73.7319 19.6093 73.5665 20.292 73.2359 20.868C72.9052 21.444 72.4625 21.8867 71.9079 22.196C71.3639 22.5053 70.7559 22.66 70.0839 22.66C69.4759 22.66 68.9372 22.5053 68.4679 22.196C68.0092 21.8867 67.6465 21.444 67.3799 20.868C67.1239 20.292 66.9959 19.6093 66.9959 18.82C66.9959 18.02 67.1239 17.3373 67.3799 16.772C67.6465 16.196 68.0092 15.7533 68.4679 15.444C68.9372 15.1347 69.4759 14.98 70.0839 14.98C70.7559 14.98 71.3639 15.1347 71.9079 15.444C72.4625 15.7533 72.9052 16.196 73.2359 16.772C73.5665 17.3373 73.7319 18.02 73.7319 18.82ZM72.4359 18.82C72.4359 18.2547 72.3185 17.7747 72.0839 17.38C71.8599 16.9853 71.5559 16.6867 71.1719 16.484C70.7985 16.2813 70.3825 16.18 69.9239 16.18C69.5505 16.18 69.1825 16.2813 68.8199 16.484C68.4572 16.6867 68.1585 16.9853 67.9239 17.38C67.6892 17.7747 67.5719 18.2547 67.5719 18.82C67.5719 19.3853 67.6892 19.8653 67.9239 20.26C68.1585 20.6547 68.4572 20.9533 68.8199 21.156C69.1825 21.3587 69.5505 21.46 69.9239 21.46C70.3825 21.46 70.7985 21.3587 71.1719 21.156C71.5559 20.9533 71.8599 20.6547 72.0839 20.26C72.3185 19.8653 72.4359 19.3853 72.4359 18.82ZM76.0729 20.228C76.0729 20.5053 76.1369 20.7453 76.2649 20.948C76.4035 21.1507 76.5902 21.3053 76.8249 21.412C77.0702 21.508 77.3475 21.556 77.6569 21.556C78.0515 21.556 78.4035 21.476 78.7129 21.316C79.0329 21.156 79.2835 20.932 79.4649 20.644C79.6569 20.3453 79.7529 20.004 79.7529 19.62L80.0089 20.58C80.0089 21.0493 79.8649 21.4387 79.5769 21.748C79.2995 22.0573 78.9529 22.2867 78.5369 22.436C78.1315 22.5853 77.7262 22.66 77.3209 22.66C76.8729 22.66 76.4515 22.5693 76.0569 22.388C75.6729 22.196 75.3635 21.924 75.1289 21.572C74.8942 21.22 74.7769 20.7933 74.7769 20.292C74.7769 19.5773 75.0275 19.0067 75.5289 18.58C76.0409 18.1427 76.7502 17.924 77.6569 17.924C78.1902 17.924 78.6329 17.988 78.9849 18.116C79.3475 18.2333 79.6355 18.372 79.8489 18.532C80.0622 18.6813 80.2062 18.804 80.2809 18.9V19.652C79.9075 19.396 79.5235 19.2147 79.1289 19.108C78.7342 18.9907 78.3129 18.932 77.8649 18.932C77.4489 18.932 77.1075 18.9853 76.8409 19.092C76.5849 19.1987 76.3929 19.348 76.2649 19.54C76.1369 19.732 76.0729 19.9613 76.0729 20.228ZM75.8809 16.836L75.2569 15.892C75.5342 15.6893 75.9129 15.4867 76.3929 15.284C76.8835 15.0813 77.4702 14.98 78.1529 14.98C78.7289 14.98 79.2302 15.0707 79.6569 15.252C80.0942 15.4227 80.4302 15.6733 80.6649 16.004C80.9102 16.3347 81.0329 16.74 81.0329 17.22V22.5H79.7529V17.396C79.7529 17.14 79.7102 16.932 79.6249 16.772C79.5395 16.6013 79.4169 16.468 79.2569 16.372C79.1075 16.276 78.9315 16.2067 78.7289 16.164C78.5262 16.1213 78.3129 16.1 78.0889 16.1C77.7262 16.1 77.3955 16.1427 77.0969 16.228C76.8089 16.3133 76.5635 16.4147 76.3609 16.532C76.1582 16.6493 75.9982 16.7507 75.8809 16.836ZM84.48 15.14V22.5H83.2V15.14H84.48ZM86.704 16.548C86.5333 16.42 86.3787 16.3293 86.24 16.276C86.1013 16.212 85.9253 16.18 85.712 16.18C85.392 16.18 85.1413 16.26 84.96 16.42C84.7787 16.58 84.6507 16.7987 84.576 17.076C84.512 17.3533 84.48 17.668 84.48 18.02H83.904C83.904 17.4333 84.0053 16.916 84.208 16.468C84.4213 16.0093 84.6933 15.6467 85.024 15.38C85.3547 15.1133 85.6907 14.98 86.032 14.98C86.2987 14.98 86.544 15.0173 86.768 15.092C87.0027 15.156 87.216 15.2893 87.408 15.492L86.704 16.548ZM91.298 22.66C90.6153 22.66 90.0073 22.5 89.474 22.18C88.9513 21.8493 88.5407 21.396 88.242 20.82C87.954 20.244 87.81 19.5773 87.81 18.82C87.81 18.052 87.9593 17.38 88.258 16.804C88.5673 16.228 88.994 15.78 89.538 15.46C90.0927 15.14 90.7327 14.98 91.458 14.98C92.1833 14.98 92.802 15.1347 93.314 15.444C93.8367 15.7427 94.2367 16.1747 94.514 16.74C94.7913 17.3053 94.93 17.9773 94.93 18.756C94.93 18.8307 94.9247 18.9107 94.914 18.996C94.914 19.0707 94.914 19.1187 94.914 19.14H88.626V18.052H93.906L93.394 18.788C93.426 18.7347 93.458 18.6547 93.49 18.548C93.522 18.4307 93.538 18.3347 93.538 18.26C93.538 17.8227 93.4473 17.444 93.266 17.124C93.0953 16.804 92.8553 16.5533 92.546 16.372C92.2367 16.1907 91.874 16.1 91.458 16.1C90.9673 16.1 90.546 16.2067 90.194 16.42C89.8527 16.6227 89.586 16.9213 89.394 17.316C89.2127 17.7 89.1167 18.1747 89.106 18.74C89.106 19.316 89.1967 19.8067 89.378 20.212C89.5593 20.6173 89.826 20.9267 90.178 21.14C90.53 21.3533 90.9567 21.46 91.458 21.46C91.9593 21.46 92.402 21.3533 92.786 21.14C93.17 20.916 93.4953 20.58 93.762 20.132L94.802 20.788C94.418 21.4067 93.9327 21.876 93.346 22.196C92.77 22.5053 92.0873 22.66 91.298 22.66Z"
        fill="black" />
</svg>
    