<svg width="90" height="28" viewBox="0 0 90 28" fill="none" xmlns="http://www.w3.org/2000/svg">
    <g clip-path="url(#clip0_1_4590)">
        <path
            d="M1.36678 27.91H0.150818L1.7302 23.2502H3.23643L4.81581 27.91H3.59985L2.50045 24.4243H2.46389L1.36678 27.91ZM1.2045 26.0761H3.74613V26.9317H1.2045V26.0761ZM18.6215 24.9385H17.4787C17.4635 24.8217 17.4323 24.7163 17.385 24.6222C17.3378 24.5282 17.2753 24.4478 17.1976 24.381C17.1199 24.3143 17.0277 24.2635 16.921 24.2286C16.8159 24.1922 16.6993 24.174 16.5713 24.174C16.3443 24.174 16.1485 24.2293 15.9839 24.3401C15.8209 24.4508 15.6951 24.6108 15.6068 24.8202C15.5199 25.0295 15.4765 25.2828 15.4765 25.5801C15.4765 25.8896 15.5207 26.1489 15.6091 26.3583C15.699 26.5661 15.8247 26.723 15.9862 26.8293C16.1492 26.9339 16.342 26.9862 16.5644 26.9862C16.6894 26.9862 16.8029 26.9703 16.905 26.9385C17.0087 26.9066 17.0993 26.8604 17.177 26.7997C17.2562 26.7375 17.321 26.6624 17.3713 26.5744C17.4231 26.4849 17.4589 26.3841 17.4787 26.2718L18.6215 26.2786C18.6017 26.4849 18.5415 26.6882 18.441 26.8884C18.3419 27.0886 18.2055 27.2714 18.0318 27.4367C17.8581 27.6006 17.6463 27.731 17.3964 27.8281C17.1481 27.9252 16.8631 27.9737 16.5416 27.9737C16.118 27.9737 15.7386 27.8812 15.4033 27.6961C15.0697 27.5096 14.8061 27.2381 14.6125 26.8816C14.419 26.5251 14.3222 26.0913 14.3222 25.5801C14.3222 25.0674 14.4205 24.6328 14.6171 24.2764C14.8136 23.9199 15.0795 23.6491 15.4148 23.4641C15.75 23.279 16.1256 23.1865 16.5416 23.1865C16.825 23.1865 17.0871 23.2259 17.3279 23.3048C17.5686 23.3822 17.7804 23.4959 17.9633 23.6461C18.1461 23.7948 18.2947 23.9775 18.4089 24.1945C18.5233 24.4114 18.5941 24.6594 18.6215 24.9385ZM29.4348 27.91H28.2188L29.7982 23.2502H31.3044L32.8838 27.91H31.6679L30.5684 24.4243H30.5319L29.4348 27.91ZM29.2725 26.0761H31.8141V26.9317H29.2725V26.0761ZM44.3907 27.91H42.6605V23.2502H44.3885C44.8654 23.2502 45.2761 23.3435 45.6204 23.5301C45.9663 23.7151 46.233 23.9821 46.4204 24.331C46.6078 24.6783 46.7015 25.094 46.7015 25.5778C46.7015 26.0632 46.6078 26.4804 46.4204 26.8293C46.2345 27.1781 45.9686 27.4459 45.6227 27.6324C45.2768 27.8175 44.8662 27.91 44.3907 27.91ZM43.7919 26.9499H44.3473C44.6094 26.9499 44.8312 26.9059 45.0125 26.8179C45.1953 26.7284 45.3332 26.5835 45.4261 26.3833C45.5206 26.1815 45.5678 25.9131 45.5678 25.5778C45.5678 25.2426 45.5206 24.9757 45.4261 24.7769C45.3317 24.5767 45.1922 24.4326 45.0079 24.3446C44.825 24.2551 44.5995 24.2104 44.3313 24.2104H43.7919V26.9499ZM56.6351 27.91V23.2502H59.8985V24.1649H57.7663V25.1205H59.7316V26.0374H57.7663V26.9954H59.8985V27.91H56.6351ZM69.8798 23.2502H71.2811L72.4696 26.1353H72.5247L73.7132 23.2502H75.114V27.91H74.0127V25.0477H73.9734L72.8492 27.8804H72.1451L71.0203 25.0318H70.9816V27.91H69.8798V23.2502ZM84.8596 23.2502H86.1234L87.1129 25.2001H87.1543L88.1438 23.2502H89.4076L87.696 26.3537V27.91H86.5712V26.3537L84.8596 23.2502Z"
            fill="#191919" />
        <path
            d="M9.46909 1.56472L7.45636 3.76382C6.39273 3.14481 5.62909 2.82988 5.16545 2.82988C4.98858 2.83149 4.81414 2.87114 4.65409 2.94611C4.49404 3.02109 4.35217 3.12962 4.23818 3.26427C4.11139 3.39011 4.01128 3.54003 3.94382 3.70513C3.87635 3.87023 3.8429 4.04714 3.84545 4.22536C3.84545 4.96382 4.51636 5.59911 5.86364 6.1421C6.64058 6.4516 7.38736 6.83153 8.09455 7.27694C8.62244 7.63917 9.05618 8.12123 9.36 8.68328C9.69911 9.27703 9.87414 9.94963 9.86727 10.6326C9.86607 11.2709 9.726 11.9013 9.45671 12.4806C9.18742 13.0599 8.79529 13.5742 8.30727 13.9883C7.30805 14.9209 5.98413 15.4309 4.61455 15.4109C3.05455 15.4109 1.52182 14.6778 0 13.2389L2.13273 10.7629C3.08182 11.7403 3.97636 12.2344 4.80545 12.2344C5.02028 12.2222 5.23058 12.168 5.42432 12.0748C5.61807 11.9817 5.79147 11.8514 5.93455 11.6914C6.09578 11.5576 6.22745 11.3921 6.32133 11.2052C6.4152 11.0183 6.46925 10.8141 6.48 10.6054C6.48 9.82355 5.65271 9.13575 3.99818 8.5421C3.28267 8.31719 2.60308 7.99173 1.98 7.57558C1.54348 7.22845 1.20047 6.77881 0.981818 6.26699C0.700074 5.71488 0.550713 5.10525 0.545455 4.48599C0.51925 3.88209 0.621878 3.27952 0.846578 2.71797C1.07128 2.15642 1.41296 1.64864 1.84909 1.22807C2.3114 0.808691 2.85268 0.484769 3.44159 0.275059C4.03052 0.065349 4.65538 -0.0259823 5.28 0.00635293C6.82729 -0.0390033 8.33089 0.520359 9.46909 1.56472ZM24.8018 13.1683L26.6564 15.2914L24.4745 16.6706L22.7891 14.667C21.7036 15.0933 20.5519 15.3285 19.3855 15.362C18.3719 15.3951 17.3627 15.216 16.4231 14.8362C15.4834 14.4565 14.6344 13.8845 13.9309 13.1575C13.2098 12.4005 12.6482 11.5076 12.2791 10.5312C11.9101 9.55482 11.741 8.51484 11.7818 7.47242C11.788 5.55519 12.5317 3.71318 13.86 2.32491C14.5507 1.56062 15.4017 0.95678 16.3527 0.556127C17.3038 0.155467 18.3316 -0.032217 19.3636 0.00635293C20.3643 -0.0186316 21.3595 0.161257 22.2874 0.534868C23.2154 0.908476 24.0563 1.46785 24.7582 2.1783C25.4722 2.88125 26.0342 3.72226 26.4094 4.64956C26.7846 5.57685 26.9652 6.57079 26.94 7.57015C26.9806 9.63795 26.196 11.6374 24.7582 13.1303L24.8018 13.1683ZM20.6673 12.191L19.0909 10.3231L21.2182 8.93848L22.6745 10.6543C23.3207 9.84092 23.6378 8.81631 23.5636 7.78192C23.6333 6.52317 23.2243 5.28447 22.4182 4.31224C22.0401 3.8809 21.569 3.54016 21.0401 3.31545C20.5112 3.09073 19.9381 2.98786 19.3636 3.0145C18.8002 2.99891 18.2401 3.10544 17.722 3.3267C17.204 3.54797 16.7405 3.87869 16.3636 4.29595C15.5587 5.20872 15.1369 6.39453 15.1855 7.60816C15.1368 8.83466 15.5338 10.0376 16.3036 10.9964C16.6426 11.4209 17.0753 11.7617 17.5683 11.9924C18.0611 12.2232 18.6009 12.3376 19.1455 12.3267C19.6555 12.3209 20.1643 12.2755 20.6673 12.191ZM29.7164 0.207258H32.9073V9.36201C32.873 10.1103 33.1288 10.8432 33.6218 11.4091C33.8575 11.6655 34.1465 11.8678 34.4686 12.0019C34.7907 12.136 35.1383 12.1986 35.4873 12.1855C35.8665 12.2085 36.2464 12.1511 36.6018 12.0173C36.9572 11.8835 37.28 11.6762 37.5491 11.4091C38.0708 10.7965 38.3329 10.0059 38.28 9.20454V0.207258H41.4545V9.89957C41.4389 10.8205 41.2152 11.7262 40.8 12.5493C40.3725 13.4612 39.6531 14.206 38.7545 14.667C37.8028 15.1634 36.7416 15.4153 35.6673 15.4C33.6109 15.4 32.1 14.8299 31.1455 13.6842C30.251 12.6914 29.7439 11.4121 29.7164 10.0788V0.207258ZM48.9818 0.207258H51.4855L57.6273 15.1774H54.3545L53.1218 12.2344H47.3836L46.2055 15.1774H42.9655L48.9818 0.207258ZM50.2364 5.09414L48.4855 9.50862H52.0473L50.2364 5.11043V5.09414ZM59.9618 0.207258H64.9091C66.2067 0.137733 67.4825 0.562947 68.4764 1.3964C68.9155 1.80364 69.2596 2.30121 69.486 2.85448C69.7118 3.40774 69.8144 4.00341 69.7855 4.60002C69.7685 5.43122 69.5634 6.24787 69.1854 6.98916C68.7109 7.88617 67.9233 8.57951 66.9709 8.93848L71.1709 15.1774H67.4618L63.5673 9.38916H63.2018V15.1774H59.9618V0.207258ZM63.2345 2.87875V6.77739H63.9327C65.6198 6.77739 66.4636 6.08959 66.4636 4.71405C66.4729 4.45372 66.4173 4.19517 66.3022 3.96125C66.1871 3.72734 66.0158 3.52525 65.8036 3.37287C65.2653 3.01319 64.6233 2.83958 63.9764 2.87875H63.2345ZM73.7618 0.207258H82.2273V3.17196H77.0018V12.2127H84.42V15.1774H73.7618V0.207258ZM83.0345 6.23441H80.1V9.15024H83.0345V6.23441Z"
            fill="#191919" />
        <path d="M84.2455 0.207275H89.3564V15.1774H86.1655V3.17198H83.6891L84.2455 0.207275Z"
            fill="#ED1C24" />
    </g>
    <defs>
        <clipPath id="clip0_1_4590">
            <rect width="90" height="27.6923" fill="white" />
        </clipPath>
    </defs>
</svg>
    