<svg width="138" height="35" viewBox="0 0 138 35" fill="none" xmlns="http://www.w3.org/2000/svg">
    <g clip-path="url(#clip0_1_5611)">
        <path
            d="M15.48 20.7812C14.8759 20.7812 14.3862 21.2709 14.3862 21.875C14.3862 22.4791 14.8759 22.9688 15.48 22.9688C16.084 22.9688 16.5737 22.4791 16.5737 21.875C16.5737 21.2709 16.084 20.7812 15.48 20.7812ZM15.7796 19.8438H15.1546C14.8957 19.8438 14.6858 19.6339 14.6858 19.375V19.3601C14.6858 16.6123 17.7108 16.875 17.7108 15.1645C17.7108 14.3826 17.0171 13.5938 15.4671 13.5938C14.3287 13.5938 13.738 13.9707 13.1542 14.7145C13.0015 14.9091 12.7224 14.9487 12.5195 14.8073L12.0064 14.4499C11.7867 14.2968 11.7385 13.9901 11.9031 13.7789C12.7322 12.7154 13.716 12.0312 15.4671 12.0312C17.5108 12.0312 19.2733 13.1934 19.2733 15.1645C19.2733 17.7979 16.2483 17.6586 16.2483 19.3601V19.375C16.2483 19.6339 16.0385 19.8438 15.7796 19.8438ZM15.48 9.0625C20.1136 9.0625 23.9175 12.8154 23.9175 17.5C23.9175 22.1598 20.1437 25.9375 15.48 25.9375C10.822 25.9375 7.04248 22.1655 7.04248 17.5C7.04248 12.8436 10.816 9.0625 15.48 9.0625ZM15.48 7.8125C10.1301 7.8125 5.79248 12.1517 5.79248 17.5C5.79248 22.8514 10.1301 27.1875 15.48 27.1875C20.8299 27.1875 25.1675 22.8514 25.1675 17.5C25.1675 12.1517 20.8299 7.8125 15.48 7.8125Z"
            fill="black" stroke="black" stroke-width="0.0390625" />
    </g>
    <path
        d="M35.832 19.14L36.312 17.86H41.272L41.752 19.14H35.832ZM38.76 13.828L36.872 18.276L36.744 18.564L35.08 22.5H33.56L38.76 10.74L43.96 22.5H42.44L40.808 18.66L40.68 18.34L38.76 13.828ZM45.5465 20.244C45.6958 20.468 45.8665 20.676 46.0585 20.868C46.2505 21.06 46.4691 21.2147 46.7145 21.332C46.9705 21.4387 47.2478 21.492 47.5465 21.492C47.9091 21.492 48.1918 21.412 48.3945 21.252C48.6078 21.0813 48.7145 20.852 48.7145 20.564C48.7145 20.308 48.6291 20.0947 48.4585 19.924C48.2985 19.7427 48.0905 19.5933 47.8345 19.476C47.5785 19.348 47.3065 19.2307 47.0185 19.124C46.6985 18.996 46.3731 18.8467 46.0425 18.676C45.7225 18.4947 45.4505 18.2653 45.2265 17.988C45.0131 17.7 44.9065 17.3427 44.9065 16.916C44.9065 16.4787 45.0185 16.116 45.2425 15.828C45.4771 15.54 45.7758 15.3267 46.1385 15.188C46.5118 15.0493 46.8958 14.98 47.2905 14.98C47.6851 14.98 48.0531 15.044 48.3945 15.172C48.7465 15.3 49.0558 15.4707 49.3225 15.684C49.5891 15.8973 49.7971 16.1427 49.9465 16.42L48.9225 17.076C48.7198 16.7987 48.4638 16.5693 48.1545 16.388C47.8558 16.2067 47.5145 16.116 47.1305 16.116C46.8638 16.116 46.6345 16.1747 46.4425 16.292C46.2505 16.4093 46.1545 16.5907 46.1545 16.836C46.1545 17.028 46.2291 17.1987 46.3785 17.348C46.5278 17.4973 46.7198 17.6307 46.9545 17.748C47.1891 17.8653 47.4345 17.9773 47.6905 18.084C48.1171 18.2547 48.5065 18.4413 48.8585 18.644C49.2105 18.836 49.4878 19.0707 49.6905 19.348C49.9038 19.6253 50.0105 19.9827 50.0105 20.42C50.0105 21.06 49.7758 21.5933 49.3065 22.02C48.8478 22.4467 48.2398 22.66 47.4825 22.66C46.9918 22.66 46.5491 22.5747 46.1545 22.404C45.7598 22.2227 45.4238 21.9933 45.1465 21.716C44.8798 21.4387 44.6771 21.156 44.5385 20.868L45.5465 20.244ZM51.6156 10.02H52.8956V22.5H51.6156V10.02ZM55.6156 15.14H57.2156L54.0156 18.18L57.5356 22.5H55.9356L52.4156 18.18L55.6156 15.14ZM64.1154 20.228C64.1154 20.5053 64.1794 20.7453 64.3074 20.948C64.446 21.1507 64.6327 21.3053 64.8674 21.412C65.1127 21.508 65.39 21.556 65.6994 21.556C66.094 21.556 66.446 21.476 66.7554 21.316C67.0754 21.156 67.326 20.932 67.5074 20.644C67.6994 20.3453 67.7954 20.004 67.7954 19.62L68.0514 20.58C68.0514 21.0493 67.9074 21.4387 67.6194 21.748C67.342 22.0573 66.9954 22.2867 66.5794 22.436C66.174 22.5853 65.7687 22.66 65.3634 22.66C64.9154 22.66 64.494 22.5693 64.0994 22.388C63.7154 22.196 63.406 21.924 63.1714 21.572C62.9367 21.22 62.8194 20.7933 62.8194 20.292C62.8194 19.5773 63.07 19.0067 63.5714 18.58C64.0834 18.1427 64.7927 17.924 65.6994 17.924C66.2327 17.924 66.6754 17.988 67.0274 18.116C67.39 18.2333 67.678 18.372 67.8914 18.532C68.1047 18.6813 68.2487 18.804 68.3234 18.9V19.652C67.95 19.396 67.566 19.2147 67.1714 19.108C66.7767 18.9907 66.3554 18.932 65.9074 18.932C65.4914 18.932 65.15 18.9853 64.8834 19.092C64.6274 19.1987 64.4354 19.348 64.3074 19.54C64.1794 19.732 64.1154 19.9613 64.1154 20.228ZM63.9234 16.836L63.2994 15.892C63.5767 15.6893 63.9554 15.4867 64.4354 15.284C64.926 15.0813 65.5127 14.98 66.1954 14.98C66.7714 14.98 67.2727 15.0707 67.6994 15.252C68.1367 15.4227 68.4727 15.6733 68.7074 16.004C68.9527 16.3347 69.0754 16.74 69.0754 17.22V22.5H67.7954V17.396C67.7954 17.14 67.7527 16.932 67.6674 16.772C67.582 16.6013 67.4594 16.468 67.2994 16.372C67.15 16.276 66.974 16.2067 66.7714 16.164C66.5687 16.1213 66.3554 16.1 66.1314 16.1C65.7687 16.1 65.438 16.1427 65.1394 16.228C64.8514 16.3133 64.606 16.4147 64.4034 16.532C64.2007 16.6493 64.0407 16.7507 63.9234 16.836ZM81.5594 26.02V15.14H82.8394V26.02H81.5594ZM75.3994 18.82C75.3994 18.02 75.5647 17.3373 75.8954 16.772C76.226 16.196 76.6687 15.7533 77.2234 15.444C77.778 15.1347 78.386 14.98 79.0474 14.98C79.666 14.98 80.2047 15.1347 80.6634 15.444C81.122 15.7533 81.4794 16.196 81.7354 16.772C82.002 17.3373 82.1354 18.02 82.1354 18.82C82.1354 19.6093 82.002 20.292 81.7354 20.868C81.4794 21.444 81.122 21.8867 80.6634 22.196C80.2047 22.5053 79.666 22.66 79.0474 22.66C78.386 22.66 77.778 22.5053 77.2234 22.196C76.6687 21.8867 76.226 21.444 75.8954 20.868C75.5647 20.292 75.3994 19.6093 75.3994 18.82ZM76.6954 18.82C76.6954 19.3853 76.8074 19.8653 77.0314 20.26C77.266 20.6547 77.5754 20.9533 77.9594 21.156C78.3434 21.3587 78.7594 21.46 79.2074 21.46C79.5807 21.46 79.9487 21.3587 80.3114 21.156C80.674 20.9533 80.9727 20.6547 81.2074 20.26C81.442 19.8653 81.5594 19.3853 81.5594 18.82C81.5594 18.2547 81.442 17.7747 81.2074 17.38C80.9727 16.9853 80.674 16.6867 80.3114 16.484C79.9487 16.2813 79.5807 16.18 79.2074 16.18C78.7594 16.18 78.3434 16.2813 77.9594 16.484C77.5754 16.6867 77.266 16.9853 77.0314 17.38C76.8074 17.7747 76.6954 18.2547 76.6954 18.82ZM86.4444 19.62C86.4444 20.2067 86.5777 20.66 86.8444 20.98C87.111 21.3 87.5004 21.46 88.0124 21.46C88.3857 21.46 88.711 21.3853 88.9884 21.236C89.2764 21.076 89.495 20.8573 89.6444 20.58C89.8044 20.3027 89.8844 19.9827 89.8844 19.62V15.14H91.1644V22.5H89.8844V21.348C89.639 21.7853 89.335 22.116 88.9724 22.34C88.6097 22.5533 88.183 22.66 87.6924 22.66C86.9244 22.66 86.311 22.3987 85.8524 21.876C85.3937 21.3533 85.1644 20.6547 85.1644 19.78V15.14H86.4444V19.62ZM96.4186 22.66C95.7359 22.66 95.1279 22.5 94.5946 22.18C94.0719 21.8493 93.6613 21.396 93.3626 20.82C93.0746 20.244 92.9306 19.5773 92.9306 18.82C92.9306 18.052 93.0799 17.38 93.3786 16.804C93.6879 16.228 94.1146 15.78 94.6586 15.46C95.2133 15.14 95.8533 14.98 96.5786 14.98C97.3039 14.98 97.9226 15.1347 98.4346 15.444C98.9573 15.7427 99.3573 16.1747 99.6346 16.74C99.9119 17.3053 100.051 17.9773 100.051 18.756C100.051 18.8307 100.045 18.9107 100.035 18.996C100.035 19.0707 100.035 19.1187 100.035 19.14H93.7466V18.052H99.0266L98.5146 18.788C98.5466 18.7347 98.5786 18.6547 98.6106 18.548C98.6426 18.4307 98.6586 18.3347 98.6586 18.26C98.6586 17.8227 98.5679 17.444 98.3866 17.124C98.2159 16.804 97.9759 16.5533 97.6666 16.372C97.3573 16.1907 96.9946 16.1 96.5786 16.1C96.0879 16.1 95.6666 16.2067 95.3146 16.42C94.9733 16.6227 94.7066 16.9213 94.5146 17.316C94.3333 17.7 94.2373 18.1747 94.2266 18.74C94.2266 19.316 94.3173 19.8067 94.4986 20.212C94.6799 20.6173 94.9466 20.9267 95.2986 21.14C95.6506 21.3533 96.0773 21.46 96.5786 21.46C97.0799 21.46 97.5226 21.3533 97.9066 21.14C98.2906 20.916 98.6159 20.58 98.8826 20.132L99.9226 20.788C99.5386 21.4067 99.0533 21.876 98.4666 22.196C97.8906 22.5053 97.2079 22.66 96.4186 22.66ZM102.109 20.244C102.258 20.468 102.429 20.676 102.621 20.868C102.813 21.06 103.032 21.2147 103.277 21.332C103.533 21.4387 103.81 21.492 104.109 21.492C104.472 21.492 104.754 21.412 104.957 21.252C105.17 21.0813 105.277 20.852 105.277 20.564C105.277 20.308 105.192 20.0947 105.021 19.924C104.861 19.7427 104.653 19.5933 104.397 19.476C104.141 19.348 103.869 19.2307 103.581 19.124C103.261 18.996 102.936 18.8467 102.605 18.676C102.285 18.4947 102.013 18.2653 101.789 17.988C101.576 17.7 101.469 17.3427 101.469 16.916C101.469 16.4787 101.581 16.116 101.805 15.828C102.04 15.54 102.338 15.3267 102.701 15.188C103.074 15.0493 103.458 14.98 103.853 14.98C104.248 14.98 104.616 15.044 104.957 15.172C105.309 15.3 105.618 15.4707 105.885 15.684C106.152 15.8973 106.36 16.1427 106.509 16.42L105.485 17.076C105.282 16.7987 105.026 16.5693 104.717 16.388C104.418 16.2067 104.077 16.116 103.693 16.116C103.426 16.116 103.197 16.1747 103.005 16.292C102.813 16.4093 102.717 16.5907 102.717 16.836C102.717 17.028 102.792 17.1987 102.941 17.348C103.09 17.4973 103.282 17.6307 103.517 17.748C103.752 17.8653 103.997 17.9773 104.253 18.084C104.68 18.2547 105.069 18.4413 105.421 18.644C105.773 18.836 106.05 19.0707 106.253 19.348C106.466 19.6253 106.573 19.9827 106.573 20.42C106.573 21.06 106.338 21.5933 105.869 22.02C105.41 22.4467 104.802 22.66 104.045 22.66C103.554 22.66 103.112 22.5747 102.717 22.404C102.322 22.2227 101.986 21.9933 101.709 21.716C101.442 21.4387 101.24 21.156 101.101 20.868L102.109 20.244ZM107.138 15.14H110.818V16.34H107.138V15.14ZM108.338 12.58H109.618V22.5H108.338V12.58ZM112.102 12.1C112.102 11.8547 112.187 11.6467 112.358 11.476C112.539 11.3053 112.747 11.22 112.982 11.22C113.227 11.22 113.435 11.3053 113.606 11.476C113.777 11.6467 113.862 11.8547 113.862 12.1C113.862 12.3347 113.777 12.5427 113.606 12.724C113.435 12.8947 113.227 12.98 112.982 12.98C112.747 12.98 112.539 12.8947 112.358 12.724C112.187 12.5427 112.102 12.3347 112.102 12.1ZM112.342 15.14H113.622V22.5H112.342V15.14ZM115.618 18.82C115.618 18.0733 115.783 17.412 116.114 16.836C116.455 16.26 116.914 15.8067 117.49 15.476C118.066 15.1453 118.711 14.98 119.426 14.98C120.151 14.98 120.797 15.1453 121.362 15.476C121.938 15.8067 122.391 16.26 122.722 16.836C123.063 17.412 123.234 18.0733 123.234 18.82C123.234 19.556 123.063 20.2173 122.722 20.804C122.391 21.38 121.938 21.8333 121.362 22.164C120.797 22.4947 120.151 22.66 119.426 22.66C118.711 22.66 118.066 22.4947 117.49 22.164C116.914 21.8333 116.455 21.38 116.114 20.804C115.783 20.2173 115.618 19.556 115.618 18.82ZM116.914 18.82C116.914 19.332 117.021 19.7853 117.234 20.18C117.458 20.5747 117.757 20.8893 118.13 21.124C118.514 21.348 118.946 21.46 119.426 21.46C119.906 21.46 120.333 21.348 120.706 21.124C121.09 20.8893 121.389 20.5747 121.602 20.18C121.826 19.7853 121.938 19.332 121.938 18.82C121.938 18.308 121.826 17.8547 121.602 17.46C121.389 17.0547 121.09 16.74 120.706 16.516C120.333 16.292 119.906 16.18 119.426 16.18C118.946 16.18 118.514 16.292 118.13 16.516C117.757 16.74 117.458 17.0547 117.234 17.46C117.021 17.8547 116.914 18.308 116.914 18.82ZM129.712 18.02C129.712 17.412 129.579 16.9533 129.312 16.644C129.046 16.3347 128.656 16.18 128.144 16.18C127.771 16.18 127.44 16.26 127.152 16.42C126.875 16.5693 126.656 16.7827 126.496 17.06C126.347 17.3373 126.272 17.6573 126.272 18.02V22.5H124.992V15.14H126.272V16.292C126.518 15.844 126.822 15.5133 127.184 15.3C127.558 15.0867 127.984 14.98 128.464 14.98C129.243 14.98 129.856 15.2413 130.304 15.764C130.763 16.276 130.992 16.9747 130.992 17.86V22.5H129.712V18.02Z"
        fill="black" />
    <defs>
        <clipPath id="clip0_1_5611">
            <rect width="20" height="20" fill="white" transform="translate(5.47998 7.5)" />
        </clipPath>
    </defs>
</svg>
    