<svg width="77" height="35" viewBox="0 0 77 35" fill="none" xmlns="http://www.w3.org/2000/svg">
    <g clip-path="url(#clip0_1_5616)">
        <path
            d="M20.1802 20C21.2218 20 22.1073 20.3646 22.8364 21.0938C23.5655 21.8229 23.9302 22.7084 23.9302 23.75C23.9302 24.7916 23.5655 25.6771 22.8364 26.4062C22.1073 27.1354 21.2218 27.5 20.1802 27.5C19.1386 27.5 18.2531 27.1354 17.5239 26.4062C16.7948 25.6771 16.4302 24.7916 16.4302 23.75C16.4302 23.3594 16.4823 22.9817 16.5864 22.6172L12.7583 20.2344C12.0291 20.9115 11.1698 21.25 10.1802 21.25C9.13851 21.25 8.25309 20.8854 7.52393 20.1562C6.79476 19.4271 6.43018 18.5417 6.43018 17.5C6.43018 16.4583 6.79476 15.5729 7.52393 14.8438C8.25309 14.1146 9.13851 13.75 10.1802 13.75C11.1698 13.75 12.0291 14.0885 12.7583 14.7656L16.5864 12.3828C16.4823 12.0182 16.4302 11.6406 16.4302 11.25C16.4302 10.2083 16.7948 9.32291 17.5239 8.59375C18.2531 7.86458 19.1386 7.5 20.1802 7.5C21.2218 7.5 22.1073 7.86458 22.8364 8.59375C23.5655 9.32291 23.9302 10.2083 23.9302 11.25C23.9302 12.2917 23.5655 13.1771 22.8364 13.9062C22.1073 14.6354 21.2218 15 20.1802 15C19.1906 15 18.3312 14.6615 17.6021 13.9844L13.7739 16.3672C14.0083 17.1224 14.0083 17.8776 13.7739 18.6328L17.6021 21.0156C18.3312 20.3385 19.1906 20 20.1802 20ZM21.5083 9.92188C21.1437 9.55729 20.7011 9.375 20.1802 9.375C19.6593 9.375 19.2167 9.55729 18.8521 9.92188C18.4875 10.2865 18.3052 10.7292 18.3052 11.25C18.3052 11.7708 18.4875 12.2135 18.8521 12.5781C19.2167 12.9427 19.6593 13.125 20.1802 13.125C20.7011 13.125 21.1437 12.9427 21.5083 12.5781C21.8729 12.2135 22.0552 11.7708 22.0552 11.25C22.0552 10.7292 21.8729 10.2865 21.5083 9.92188ZM8.85205 18.8281C9.21664 19.1927 9.65934 19.375 10.1802 19.375C10.701 19.375 11.1437 19.1927 11.5083 18.8281C11.8729 18.4635 12.0552 18.0208 12.0552 17.5C12.0552 16.9792 11.8729 16.5365 11.5083 16.1719C11.1437 15.8073 10.701 15.625 10.1802 15.625C9.65934 15.625 9.21664 15.8073 8.85205 16.1719C8.48746 16.5365 8.30518 16.9792 8.30518 17.5C8.30518 18.0208 8.48746 18.4635 8.85205 18.8281ZM18.8521 25.0781C19.2167 25.4428 19.6593 25.625 20.1802 25.625C20.7011 25.625 21.1437 25.4428 21.5083 25.0781C21.8729 24.7135 22.0552 24.2709 22.0552 23.75C22.0552 23.2291 21.8729 22.7865 21.5083 22.4219C21.1437 22.0573 20.7011 21.875 20.1802 21.875C19.6593 21.875 19.2167 22.0573 18.8521 22.4219C18.4875 22.7865 18.3052 23.2291 18.3052 23.75C18.3052 24.2709 18.4875 24.7135 18.8521 25.0781Z"
            fill="black" />
    </g>
    <path
        d="M34.8762 19.108C35.1322 19.556 35.3988 19.9507 35.6762 20.292C35.9642 20.6333 36.2842 20.9 36.6362 21.092C36.9882 21.284 37.3882 21.38 37.8362 21.38C38.4335 21.38 38.9135 21.2147 39.2762 20.884C39.6388 20.5533 39.8202 20.132 39.8202 19.62C39.8202 19.1187 39.7028 18.7187 39.4682 18.42C39.2335 18.1213 38.9242 17.8813 38.5402 17.7C38.1668 17.508 37.7668 17.3373 37.3402 17.188C37.0628 17.092 36.7535 16.9693 36.4122 16.82C36.0708 16.66 35.7455 16.4627 35.4362 16.228C35.1268 15.9827 34.8708 15.684 34.6682 15.332C34.4762 14.98 34.3802 14.548 34.3802 14.036C34.3802 13.4813 34.5188 12.9853 34.7962 12.548C35.0735 12.1107 35.4575 11.7693 35.9482 11.524C36.4388 11.268 36.9988 11.14 37.6282 11.14C38.2362 11.14 38.7642 11.2573 39.2122 11.492C39.6708 11.716 40.0602 12.0093 40.3802 12.372C40.7002 12.724 40.9508 13.0973 41.1322 13.492L39.9642 14.164C39.8255 13.8867 39.6495 13.6147 39.4362 13.348C39.2228 13.0813 38.9615 12.8627 38.6522 12.692C38.3535 12.5213 37.9855 12.436 37.5482 12.436C36.9402 12.436 36.4975 12.5853 36.2202 12.884C35.9428 13.172 35.8042 13.4973 35.8042 13.86C35.8042 14.1693 35.8842 14.4573 36.0442 14.724C36.2042 14.98 36.4708 15.2253 36.8442 15.46C37.2282 15.684 37.7455 15.908 38.3962 16.132C38.6948 16.2387 39.0095 16.3773 39.3402 16.548C39.6708 16.7187 39.9748 16.9373 40.2522 17.204C40.5402 17.46 40.7748 17.7747 40.9562 18.148C41.1375 18.5107 41.2282 18.948 41.2282 19.46C41.2282 19.9507 41.1322 20.3933 40.9402 20.788C40.7588 21.1827 40.5028 21.5187 40.1722 21.796C39.8522 22.0733 39.4842 22.2867 39.0682 22.436C38.6628 22.5853 38.2362 22.66 37.7882 22.66C37.1802 22.66 36.6148 22.532 36.0922 22.276C35.5802 22.0093 35.1268 21.6627 34.7322 21.236C34.3482 20.7987 34.0335 20.3347 33.7882 19.844L34.8762 19.108ZM44.4258 10.02V22.5H43.1458V10.02H44.4258ZM47.8658 18.02C47.8658 17.412 47.7325 16.9533 47.4658 16.644C47.2098 16.3347 46.8205 16.18 46.2978 16.18C45.9245 16.18 45.5938 16.26 45.3058 16.42C45.0285 16.58 44.8098 16.7987 44.6498 17.076C44.5005 17.3533 44.4258 17.668 44.4258 18.02H44.0098C44.0098 17.4333 44.1218 16.916 44.3458 16.468C44.5698 16.0093 44.8738 15.6467 45.2578 15.38C45.6525 15.1133 46.1058 14.98 46.6178 14.98C47.1298 14.98 47.5725 15.0867 47.9458 15.3C48.3298 15.5133 48.6231 15.8333 48.8258 16.26C49.0391 16.6867 49.1458 17.22 49.1458 17.86V22.5H47.8658V18.02ZM52.1281 20.228C52.1281 20.5053 52.1921 20.7453 52.3201 20.948C52.4587 21.1507 52.6454 21.3053 52.8801 21.412C53.1254 21.508 53.4027 21.556 53.7121 21.556C54.1067 21.556 54.4587 21.476 54.7681 21.316C55.0881 21.156 55.3387 20.932 55.5201 20.644C55.7121 20.3453 55.8081 20.004 55.8081 19.62L56.0641 20.58C56.0641 21.0493 55.9201 21.4387 55.6321 21.748C55.3547 22.0573 55.0081 22.2867 54.5921 22.436C54.1867 22.5853 53.7814 22.66 53.3761 22.66C52.9281 22.66 52.5067 22.5693 52.1121 22.388C51.7281 22.196 51.4187 21.924 51.1841 21.572C50.9494 21.22 50.8321 20.7933 50.8321 20.292C50.8321 19.5773 51.0827 19.0067 51.5841 18.58C52.0961 18.1427 52.8054 17.924 53.7121 17.924C54.2454 17.924 54.6881 17.988 55.0401 18.116C55.4027 18.2333 55.6907 18.372 55.9041 18.532C56.1174 18.6813 56.2614 18.804 56.3361 18.9V19.652C55.9627 19.396 55.5787 19.2147 55.1841 19.108C54.7894 18.9907 54.3681 18.932 53.9201 18.932C53.5041 18.932 53.1627 18.9853 52.8961 19.092C52.6401 19.1987 52.4481 19.348 52.3201 19.54C52.1921 19.732 52.1281 19.9613 52.1281 20.228ZM51.9361 16.836L51.3121 15.892C51.5894 15.6893 51.9681 15.4867 52.4481 15.284C52.9387 15.0813 53.5254 14.98 54.2081 14.98C54.7841 14.98 55.2854 15.0707 55.7121 15.252C56.1494 15.4227 56.4854 15.6733 56.7201 16.004C56.9654 16.3347 57.0881 16.74 57.0881 17.22V22.5H55.8081V17.396C55.8081 17.14 55.7654 16.932 55.6801 16.772C55.5947 16.6013 55.4721 16.468 55.3121 16.372C55.1627 16.276 54.9867 16.2067 54.7841 16.164C54.5814 16.1213 54.3681 16.1 54.1441 16.1C53.7814 16.1 53.4507 16.1427 53.1521 16.228C52.8641 16.3133 52.6187 16.4147 52.4161 16.532C52.2134 16.6493 52.0534 16.7507 51.9361 16.836ZM60.5352 15.14V22.5H59.2552V15.14H60.5352ZM62.7592 16.548C62.5885 16.42 62.4338 16.3293 62.2952 16.276C62.1565 16.212 61.9805 16.18 61.7672 16.18C61.4472 16.18 61.1965 16.26 61.0152 16.42C60.8338 16.58 60.7058 16.7987 60.6312 17.076C60.5672 17.3533 60.5352 17.668 60.5352 18.02H59.9592C59.9592 17.4333 60.0605 16.916 60.2632 16.468C60.4765 16.0093 60.7485 15.6467 61.0792 15.38C61.4098 15.1133 61.7458 14.98 62.0872 14.98C62.3538 14.98 62.5992 15.0173 62.8232 15.092C63.0578 15.156 63.2712 15.2893 63.4632 15.492L62.7592 16.548ZM67.3532 22.66C66.6705 22.66 66.0625 22.5 65.5292 22.18C65.0065 21.8493 64.5958 21.396 64.2972 20.82C64.0092 20.244 63.8652 19.5773 63.8652 18.82C63.8652 18.052 64.0145 17.38 64.3132 16.804C64.6225 16.228 65.0492 15.78 65.5932 15.46C66.1478 15.14 66.7878 14.98 67.5132 14.98C68.2385 14.98 68.8572 15.1347 69.3692 15.444C69.8918 15.7427 70.2918 16.1747 70.5692 16.74C70.8465 17.3053 70.9852 17.9773 70.9852 18.756C70.9852 18.8307 70.9798 18.9107 70.9692 18.996C70.9692 19.0707 70.9692 19.1187 70.9692 19.14H64.6812V18.052H69.9612L69.4492 18.788C69.4812 18.7347 69.5132 18.6547 69.5452 18.548C69.5772 18.4307 69.5932 18.3347 69.5932 18.26C69.5932 17.8227 69.5025 17.444 69.3212 17.124C69.1505 16.804 68.9105 16.5533 68.6012 16.372C68.2918 16.1907 67.9292 16.1 67.5132 16.1C67.0225 16.1 66.6012 16.2067 66.2492 16.42C65.9078 16.6227 65.6412 16.9213 65.4492 17.316C65.2678 17.7 65.1718 18.1747 65.1612 18.74C65.1612 19.316 65.2518 19.8067 65.4332 20.212C65.6145 20.6173 65.8812 20.9267 66.2332 21.14C66.5852 21.3533 67.0118 21.46 67.5132 21.46C68.0145 21.46 68.4572 21.3533 68.8412 21.14C69.2252 20.916 69.5505 20.58 69.8172 20.132L70.8572 20.788C70.4732 21.4067 69.9878 21.876 69.4012 22.196C68.8252 22.5053 68.1425 22.66 67.3532 22.66Z"
        fill="black" />
    <defs>
        <clipPath id="clip0_1_5616">
            <rect width="20" height="20" fill="white" transform="translate(5.18018 7.5)" />
        </clipPath>
    </defs>
</svg>
    