<svg width="34" height="35" viewBox="0 0 34 35" fill="none" xmlns="http://www.w3.org/2000/svg">
    <mask id="mask0_1_4624" style="mask-type:alpha" maskUnits="userSpaceOnUse" x="0" y="0"
        width="34" height="35">
        <rect y="0.5" width="34" height="34" fill="#D9D9D9" />
    </mask>
    <g mask="url(#mask0_1_4624)">
        <path
            d="M7.82714 30.25C7.18964 30.25 6.62298 30.0552 6.12714 29.6656C5.63131 29.276 5.28895 28.7743 5.10006 28.1604L1.48756 15.0562C1.3695 14.6076 1.44624 14.1944 1.71777 13.8167C1.9893 13.4389 2.36117 13.25 2.83339 13.25H9.56256L15.7959 3.97083C15.9139 3.78194 16.0792 3.62847 16.2917 3.51042C16.5042 3.39236 16.7285 3.33333 16.9646 3.33333C17.2008 3.33333 17.4251 3.39236 17.6376 3.51042C17.8501 3.62847 18.0153 3.78194 18.1334 3.97083L24.3667 13.25H31.1667C31.6389 13.25 32.0108 13.4389 32.2824 13.8167C32.5539 14.1944 32.6306 14.6076 32.5126 15.0562L28.9001 28.1604C28.7112 28.7743 28.3688 29.276 27.873 29.6656C27.3771 30.0552 26.8105 30.25 26.173 30.25H7.82714ZM7.79173 27.4167H26.2084L29.3251 16.0833H4.67506L7.79173 27.4167ZM17.0001 24.5833C17.7792 24.5833 18.4462 24.3059 19.0011 23.751C19.556 23.1962 19.8334 22.5292 19.8334 21.75C19.8334 20.9708 19.556 20.3038 19.0011 19.749C18.4462 19.1941 17.7792 18.9167 17.0001 18.9167C16.2209 18.9167 15.5539 19.1941 14.999 19.749C14.4442 20.3038 14.1667 20.9708 14.1667 21.75C14.1667 22.5292 14.4442 23.1962 14.999 23.751C15.5539 24.3059 16.2209 24.5833 17.0001 24.5833ZM12.998 13.25H20.9667L16.9646 7.3L12.998 13.25Z"
            fill="#191919" />
    </g>
</svg>
    